<svg xmlns="http://www.w3.org/2000/svg" height="800" width="1200" viewBox="-24.16401 -8.964075 209.42142 53.78445"><path d="M71.2795 21.9122H60.7132v2.425h.3464c.0866-.3464.6929-1.0393 1.4724-1.0393h2.3384v12.3852h2.3385V23.2979h2.425c.7795 0 1.2992.433 1.3858.8661v.0866h.3464zM2.425 21.1327C.866 22.6917 0 24.9435 0 27.1087c0 2.5117 1.0393 4.7636 2.7715 6.3225 1.7322 1.559 4.0706 2.425 6.4957 2.425 1.2991 0 3.8108-.2597 6.3225-1.7321l.0866-.0866.2598-3.4644-.433-.0866-.0866.1732c-1.8188 3.7242-4.5903 3.7242-5.7162 3.7242-4.7636 0-6.9288-3.984-6.9288-7.6216 0-3.551 2.1652-7.1886 6.9288-7.1886 1.4723 0 4.1572.5197 5.543 3.7242l.0866.1732.433-.1732-.1732-3.551-.0866-.0866c-2.2519-.9527-4.0707-1.3857-5.8895-1.3857-2.9447.0866-5.4563 1.0393-7.1885 2.858zm15.8496.7795l-.0866.3464c.1732.0866.433.6063.433 1.2125v12.1254h2.2519v-6.236h.9527c.866.0867 1.2125.6063 1.7322 1.3858l.0866.0866.2598.5197c.5196.7795 1.126 1.9054 1.8188 2.9447.5196.7795 1.126 1.126 1.9054 1.2992.5196.0866 1.6456.0866 2.0786-.0867l.5197-.0866.1732-.0866-.6929-.1732c-.2598-.0866-.6929-.2598-1.2991-.9527-.3465-.433-.9527-1.3857-1.8188-2.7715l-.8661-1.3857c-.2598-.3465-.6063-.8661-1.2992-1.2992 1.2992-.433 2.5117-1.559 2.5117-3.2911 0-.5197-.0866-1.4724-.9527-2.2519-.866-.7795-2.1652-1.2125-3.984-1.2125zm3.8974 1.2991c2.3385.0866 2.425 2.0786 2.425 2.3385 0 1.992-1.4723 2.6849-2.6848 2.6849h-.9527v-4.9368c.2598-.0866.6928-.1732 1.2125-.0866zm19.4005-1.2991v.3464c.1732.0866.3464.6063.3464 1.0393v12.2986h3.8975c2.5982 0 4.6769-.7795 6.1492-2.3385 1.2126-1.2991 1.9054-2.9447 1.9054-4.7635 0-1.0393-.3464-2.6849-1.3857-3.984-1.3858-1.7322-3.4644-2.685-6.3225-2.685zm2.6849 1.3857h1.2125c.3465 0 1.126 0 1.7322.0866 3.8108.6063 4.2439 3.8108 4.2439 5.1966 0 1.126-.1732 2.6849-1.126 3.984-.9527 1.2126-2.425 1.8188-4.417 1.8188h-1.6456V23.298zm14.3772-1.3857h-2.685v.3464c.2599.0866.4331.6063.4331 1.126v12.2119h2.2519zm45.9029 0h-2.6849v.3464c.2599.0866.433.6063.433 1.126v12.2119h2.252zm-65.9097 0h-7.6216l.0866.3464c.1732.0866.433.6063.433 1.2125v12.1254h7.6216l.5197-2.4251-.3464-.0866-.0866.1732c-.6063.9527-1.2992 1.126-3.4644 1.126-.7795 0-1.559-.0867-2.0787-.0867v-5.543h3.8975v-1.2991H33.691v-4.2439h3.118c.6929 0 1.4723.6929 1.559 1.126v.0865h.3464zm97.6954 0h-7.6217v.3464c.1733.0866.433.5197.433 1.2125v12.1254h7.6217l.5197-2.4251-.3465-.0866-.0866.1732c-.6062.9527-1.2991 1.126-3.4644 1.126-.7794 0-1.559-.0867-2.0786-.0867v-5.543h3.8974v-1.2991h-3.8974v-4.2439h3.118c.866 0 1.4723.6929 1.4723 1.126v.0865h.3465zm-58.3748-2.5117c-.7794.6063-1.7321 1.6456-1.8188 3.4644v.0866c0 2.1652 1.3858 3.3778 3.6376 4.5037.0867.0866.2599.1732.8661.433 1.9054.9527 3.2046 1.6456 3.2046 3.551 0 .6929-.2598 1.6456-.9527 2.3385-.6063.6062-1.3858.866-2.3385.866-2.858 0-3.8974-2.5116-4.1572-3.6375l-.0866-.1733-.5197.0866.1732 3.551.2599-.0866c.9527.5197 2.425 1.3858 4.6769 1.4724 1.559 0 3.1179-.6063 4.2438-1.7322.9527-.9527 1.4724-2.1652 1.4724-3.4644 0-2.858-2.0786-3.984-4.2439-5.11l-.433-.2598c-2.2519-1.1259-3.2912-1.8188-3.2912-3.2045 0-.9527.7795-2.5117 2.685-2.5117 2.2518 0 3.4643 1.7322 3.7241 2.7715l.0866.1732.5197-.0866-.1732-3.118-.0866-.0865c-1.2992-.8661-2.9448-1.0393-3.6376-1.0393-1.559.0866-2.8582.5196-3.8109 1.2125zm30.3133 5.976c0 1.9055 1.126 2.8582 2.9447 3.8109l.693.3464c1.4723.6929 2.425 1.2125 2.425 2.5983 0 .2598-.0866 1.0393-.6929 1.7322-.433.433-1.0393.6928-1.8188.6062-2.1652 0-2.9447-1.7322-3.2911-2.6849l-.0867-.1732-.433.0866.0866 2.8581.0866.0867c.6929.433 1.9054 1.1259 3.7242 1.1259 1.2126 0 2.5117-.5197 3.3778-1.3858.7795-.7795 1.126-1.7322 1.126-2.7715 0-2.425-1.6457-3.2911-3.3779-4.1572l-.3464-.1732c-1.9054-.9527-2.5117-1.3858-2.5117-2.4251 0-.7795.5197-1.8188 2.0787-1.8188 1.8188 0 2.5982 1.3857 2.7715 2.0786l.0866.1732.433-.0866-.1732-2.5116-.0866-.0867c-1.0393-.6928-2.3385-.7794-2.8581-.7794-1.992 0-4.1573 1.2125-4.1573 3.551zm10.2199 0c0 1.9055 1.126 2.8582 2.9448 3.8109l.6928.3464c1.4724.6929 2.425 1.2125 2.425 2.5983 0 .2598-.0865 1.0393-.6928 1.7322-.433.433-1.0393.6928-1.8188.6062-2.1652 0-2.9447-1.7322-3.2911-2.6849l-.0866-.1732-.433.0866.0865 2.8581.0866.0867c.6929.433 1.9054 1.1259 3.7242 1.1259 1.2126 0 2.5117-.5197 3.3778-1.3858.7795-.7795 1.126-1.7322 1.126-2.7715 0-2.425-1.6457-3.2911-3.3778-4.1572l-.3465-.1732c-1.9054-.9527-2.5117-1.3858-2.5117-2.4251 0-.433.1733-.9527.5197-1.2991.3464-.3465.866-.5197 1.4724-.5197 1.8188 0 2.5982 1.3857 2.7715 2.0786l.0866.1732.433-.0866-.1732-2.5116-.0866-.0867c-1.0393-.6928-2.3385-.7794-2.8581-.7794-1.8188 0-4.0707 1.2125-4.0707 3.551zM98.908 21.9122h-1.819v.3464c.0866.0866.3465.2598.3465 1.126v7.7948c0 1.4723-.5197 3.2911-3.2046 3.2911-2.5117 0-3.0313-1.4723-3.0313-3.7242v-8.8341h-2.8581v.3464c.1732.0866.5196.433.5196 1.2125v7.2752c0 4.5037 2.9447 5.0234 5.1966 5.0234 1.126 0 4.6769-.3465 4.6769-4.5903zm57.0755-3.8974c1.6456.5196 3.2912 1.2125 5.11 2.2518C156.6764 12.9914 148.8815 5.11 141.1733 0c1.992 1.992 5.1966 6.3225 6.0627 10.9128 3.1179 2.2518 6.0626 4.6769 8.7475 7.102z" fill="#003662"/><path d="M155.9835 18.0148c-3.8108-1.2126-7.0154-1.2992-9.3538-1.0394.866-1.992.9527-4.0706.6063-6.0626-5.803-4.1573-12.2986-7.7949-18.4478-10.4798 4.5036 3.0314 9.527 11.9521 11.6056 21.4792 4.5037-1.2992 11.3458-2.2519 20.2666.7795-1.4724-1.559-3.0313-3.118-4.6769-4.677z" fill="#003662"/><path d="M147.1493 10.9128c.3465 1.992.2599 4.0706-.5196 6.0626 2.425-.2598 5.6296-.1732 9.3538 1.0394-2.6849-2.4251-5.6296-4.8502-8.8342-7.102z" fill="none"/></svg>