<svg id="Layer_1" data-name="Layer 1" xmlns="http://www.w3.org/2000/svg" viewBox="0 0 500 300"><defs><style>.cls-1{fill:#243e78;}</style></defs><title>LUXOFT_01_logo_color</title><path class="cls-1" d="M169,180.7c-13,14.87-38.19,6.89-38.19-13.15V122.78H113.71v44.77c0,21.91,15.81,35.85,36,35.85,5.33,0,15-2,20-10l2.19,8.76H186V122.78H169Z"/><path class="cls-1" d="M309.07,121.37c-23.79,0-41.47,18-41.47,41.17,0,23,17.68,41.33,41.47,41.33,23.95,0,41.33-18.32,41.33-41.33C350.4,139.37,333,121.37,309.07,121.37Zm0,67.16c-11.73,0-24.41-8.46-24.41-26s12.68-25.67,24.41-25.67c12.06,0,24.27,8.14,24.27,25.67S321.13,188.53,309.07,188.53Z"/><path class="cls-1" d="M424.29,177.1V137.18h14.87v-14.4H424.29V100.71l-16.44,1.88v20.19H380v-6c0-5.63,3.29-10.17,10.49-10.49a22,22,0,0,1,6.1.63V92.57a42.74,42.74,0,0,0-7.51-.63c-16.12-.15-26.14,9.08-26.14,24.89v6H351.61v14.4h11.32v65H380v-65h27.86v40.39c0,19.09,13.15,26.61,31.63,24.73V187.43C428.21,189.46,424.29,183.52,424.29,177.1Z"/><polygon class="cls-1" points="211.08 122.78 211.07 122.78 191.2 122.78 217.81 162.38 190.73 202.14 208.99 202.14 236.07 162.39 211.06 122.78 211.08 122.78"/><polygon class="cls-1" points="268.06 122.78 249.59 122.78 239.21 138.5 248.04 152.56 268.06 122.78"/><polygon class="cls-1" points="247.96 172.09 238.69 185.57 249.74 202.14 268.37 202.14 247.99 172.05 247.96 172.09"/><path class="cls-1" d="M89.41,186.53a7.33,7.33,0,0,1-7.33-7.32V102.59l-17.19-1.88v80.38A21.06,21.06,0,0,0,86,202.15h25.28V186.53Z"/></svg>