<?xml version="1.0" encoding="UTF-8" standalone="no"?>
<!-- Created with Inkscape (http://www.inkscape.org/) -->

<svg
   width="148mm"
   height="105mm"
   viewBox="0 0 148 105"
   version="1.1"
   id="svg129"
   inkscape:version="1.1.1 (3bf5ae0d25, 2021-09-20)"
   sodipodi:docname="neurasys_logo.svg"
   xmlns:inkscape="http://www.inkscape.org/namespaces/inkscape"
   xmlns:sodipodi="http://sodipodi.sourceforge.net/DTD/sodipodi-0.dtd"
   xmlns="http://www.w3.org/2000/svg"
   xmlns:svg="http://www.w3.org/2000/svg">
  <sodipodi:namedview
     id="namedview131"
     pagecolor="#ffffff"
     bordercolor="#666666"
     borderopacity="1.0"
     inkscape:pageshadow="2"
     inkscape:pageopacity="0.0"
     inkscape:pagecheckerboard="0"
     inkscape:document-units="mm"
     showgrid="false"
     inkscape:zoom="0.54299809"
     inkscape:cx="-235.72827"
     inkscape:cy="415.28691"
     inkscape:window-width="1920"
     inkscape:window-height="1051"
     inkscape:window-x="-9"
     inkscape:window-y="-9"
     inkscape:window-maximized="1"
     inkscape:current-layer="layer1" />
  <defs
     id="defs126" />
  <g
     inkscape:label="Warstwa 1"
     inkscape:groupmode="layer"
     id="layer1">
    <g
       id="g48592"
       transform="translate(1.4948001,2.8704125)">
      <g
         fill="none"
         fill-rule="evenodd"
         id="People"
         stroke="none"
         stroke-width="1"
         transform="matrix(0.73429203,0,0,0.73429203,53.602607,16.84728)"
         style="fill:#0000ff">
        <g
           fill="#000000"
           id="Icon-9"
           transform="translate(-2)"
           style="fill:#0000ff">
          <path
             d="m 22,27 c 0,0.551 0.448,1 1,1 0.552,0 1,-0.449 1,-1 0,-0.551 -0.448,-1 -1,-1 -0.552,0 -1,0.449 -1,1 z m 2,18 c 0,-0.551 -0.448,-1 -1,-1 -0.552,0 -1,0.449 -1,1 0,0.551 0.448,1 1,1 0.552,0 1,-0.449 1,-1 z M 16,27 c 0,-0.551 -0.448,-1 -1,-1 -0.552,0 -1,0.449 -1,1 0,0.551 0.448,1 1,1 0.552,0 1,-0.449 1,-1 z m 0,12 c 0,-0.551 -0.448,-1 -1,-1 -0.552,0 -1,0.449 -1,1 0,0.551 0.448,1 1,1 0.552,0 1,-0.449 1,-1 z m 6,-22 c 0,0.551 0.448,1 1,1 0.552,0 1,-0.449 1,-1 0,-0.551 -0.448,-1 -1,-1 -0.552,0 -1,0.449 -1,1 z m -6,1 v 6.184 c 0.848,0.302 1.514,0.969 1.815,1.816 h 2.37 c 0.414,-1.162 1.513,-2 2.815,-2 1.654,0 3,1.346 3,3 0,1.302 -0.839,2.401 -2,2.816 v 12.368 c 1.161,0.415 2,1.514 2,2.816 0,1.302 -0.839,2.401 -2,2.816 V 51 c 0,0.552 -0.447,1 -1,1 -0.553,0 -1,-0.448 -1,-1 V 47.815 C 20.979,47.452 20.218,46.558 20.047,45.46 L 16.293,41.707 C 16.29,41.705 16.29,41.701 16.287,41.698 15.896,41.886 15.463,42 15,42 c -1.654,0 -3,-1.346 -3,-3 0,-1.654 1.346,-3 3,-3 1.654,0 3,1.346 3,3 0,0.462 -0.114,0.896 -0.302,1.287 0.003,0.003 0.006,0.004 0.009,0.006 l 2.907,2.908 C 20.965,42.737 21.443,42.383 22,42.184 V 29.815 C 21.152,29.514 20.486,28.847 20.185,28 h -2.37 c -0.414,1.162 -1.513,2 -2.815,2 -1.654,0 -3,-1.346 -3,-3 0,-1.302 0.839,-2.401 2,-2.816 V 17 c 0,-0.552 0.447,-1 1,-1 h 5.185 C 20.486,15.153 21.152,14.486 22,14.184 V 11 c 0,-0.552 0.447,-1 1,-1 0.553,0 1,0.448 1,1 v 3.184 c 1.161,0.415 2,1.514 2,2.816 0,1.654 -1.346,3 -3,3 -1.302,0 -2.401,-0.838 -2.815,-2 z M 55.633,37.245 C 57.122,35.936 58,34.042 58,32 58,29.86 57.049,27.894 55.415,26.574 55.8,25.771 56,24.896 56,24 56,21.936 54.917,20.035 53.208,18.95 53.724,18.051 54,17.037 54,16 54,13.42 52.361,11.177 49.989,10.349 49.996,10.232 50,10.116 50,10 50,6.691 47.309,4 44,4 43.193,4 42.407,4.164 41.673,4.48 40.813,1.876 38.34,0 35.5,0 c -4.208,0 -6.079,3.796 -6.48,5.804 -0.007,0.033 0.002,0.065 0,0.099 C 29.017,5.937 29,5.965 29,6 V 52.94 C 28.774,55.779 26.363,58 23.5,58 20.647,58 18.243,55.771 18.026,52.924 17.986,52.403 17.522,52 17,52 16.688,52 16.394,52.146 16.204,52.394 15.428,53.415 14.26,54 13,54 10.794,54 9,52.206 9,50 c 0,-0.908 0.316,-1.776 0.916,-2.511 0.27,-0.331 0.3,-0.798 0.073,-1.161 C 9.763,45.965 9.335,45.785 8.913,45.884 8.578,45.962 8.279,46 8,46 5.794,46 4,44.206 4,42 4,40.351 5.047,38.851 6.604,38.267 6.975,38.128 7.229,37.784 7.252,37.39 7.275,36.995 7.063,36.623 6.713,36.442 5.039,35.579 4,33.876 4,32 4,30.236 4.907,28.636 6.427,27.72 6.664,27.577 6.831,27.342 6.889,27.071 6.946,26.799 6.888,26.517 6.729,26.29 6.252,25.609 6,24.818 6,24 6,22.339 7.058,20.836 8.631,20.259 8.942,20.145 9.177,19.884 9.258,19.563 9.338,19.241 9.253,18.9 9.032,18.653 8.366,17.91 8,16.968 8,16 c 0,-1.938 1.389,-3.589 3.301,-3.927 0.268,-0.048 0.507,-0.203 0.658,-0.43 0.151,-0.227 0.203,-0.506 0.145,-0.772 C 12.034,10.559 12,10.274 12,10 c 0,-2.206 1.794,-4 4,-4 0.866,0 1.701,0.289 2.416,0.836 0.291,0.222 0.68,0.268 1.013,0.12 C 19.764,6.807 19.99,6.488 20.021,6.124 20.211,3.812 22.179,2 24.5,2 c 1.114,0 2.035,0.358 2.815,1.094 0.403,0.379 1.036,0.36 1.414,-0.042 C 29.108,2.65 29.09,2.018 28.688,1.639 27.535,0.551 26.126,0 24.5,0 21.66,0 19.187,1.876 18.327,4.48 17.593,4.164 16.807,4 16,4 c -3.309,0 -6,2.691 -6,6 0,0.116 0.004,0.232 0.011,0.349 C 7.639,11.177 6,13.42 6,16 6,17.037 6.276,18.051 6.792,18.95 5.083,20.035 4,21.936 4,24 4,24.896 4.2,25.771 4.585,26.574 2.951,27.894 2,29.86 2,32 2,34.042 2.878,35.936 4.367,37.245 2.906,38.362 2,40.116 2,42 2,45.093 4.353,47.647 7.363,47.966 7.123,48.614 7,49.298 7,50 c 0,3.309 2.691,6 6,6 1.242,0 2.424,-0.377 3.416,-1.068 1.02,2.954 3.839,5.068 7.084,5.068 3.908,0 7.201,-3.042 7.497,-6.924 0.001,-0.013 -0.005,-0.025 -0.005,-0.038 C 30.993,53.024 31,53.014 31,53 V 6.11 C 31.148,5.496 32.135,2 35.5,2 c 2.321,0 4.289,1.812 4.479,4.124 0.031,0.364 0.257,0.683 0.592,0.832 0.333,0.148 0.722,0.102 1.013,-0.12 C 42.299,6.289 43.134,6 44,6 c 2.206,0 4,1.794 4,4 0,0.274 -0.034,0.559 -0.104,0.871 -0.058,0.266 -0.006,0.545 0.145,0.772 0.151,0.227 0.39,0.382 0.658,0.43 C 50.611,12.411 52,14.062 52,16 c 0,0.968 -0.366,1.91 -1.032,2.653 -0.221,0.247 -0.306,0.588 -0.226,0.91 0.081,0.321 0.316,0.582 0.627,0.696 C 52.942,20.836 54,22.339 54,24 c 0,0.818 -0.252,1.609 -0.729,2.29 -0.159,0.227 -0.217,0.509 -0.16,0.781 0.058,0.271 0.225,0.506 0.462,0.649 1.52,0.916 2.427,2.516 2.427,4.28 0,1.876 -1.039,3.579 -2.713,4.442 -0.35,0.181 -0.562,0.553 -0.539,0.948 0.023,0.394 0.277,0.738 0.648,0.877 C 54.953,38.851 56,40.351 56,42 c 0,2.206 -1.794,4 -4,4 -0.279,0 -0.578,-0.038 -0.913,-0.116 -0.42,-0.099 -0.849,0.081 -1.076,0.444 -0.227,0.363 -0.197,0.83 0.073,1.161 0.6,0.735 0.916,1.603 0.916,2.511 0,2.206 -1.794,4 -4,4 -1.264,0 -2.43,-0.592 -3.198,-1.625 -0.258,-0.345 -0.707,-0.486 -1.116,-0.352 -0.148,0.049 -0.278,0.13 -0.383,0.233 -0.186,0.166 -0.309,0.402 -0.329,0.668 C 41.757,55.771 39.353,58 36.5,58 c -1.257,0 -2.443,-0.413 -3.43,-1.194 -0.435,-0.343 -1.062,-0.269 -1.405,0.163 -0.343,0.433 -0.269,1.062 0.163,1.405 C 33.153,59.422 34.813,60 36.5,60 39.747,60 42.568,57.882 43.586,54.925 44.575,55.621 45.755,56 47,56 c 3.309,0 6,-2.691 6,-6 0,-0.702 -0.123,-1.386 -0.363,-2.034 C 55.647,47.647 58,45.093 58,42 58,40.116 57.094,38.362 55.633,37.245 Z M 38,45 c 0,0.552 0.447,1 1,1 1.458,0 3,1.542 3,3 0,0.552 0.447,1 1,1 0.553,0 1,-0.448 1,-1 0,-2.57 -2.43,-5 -5,-5 -0.553,0 -1,0.448 -1,1 z m 9,-27 c -1.458,0 -3,-1.542 -3,-3 0,-0.552 -0.447,-1 -1,-1 -0.553,0 -1,0.448 -1,1 0,2.57 2.43,5 5,5 0.553,0 1,-0.448 1,-1 0,-0.552 -0.447,-1 -1,-1 z M 35,40 c 0.553,0 1,-0.448 1,-1 0,-1.458 1.542,-3 3,-3 0.553,0 1,-0.448 1,-1 0,-0.552 -0.447,-1 -1,-1 -2.57,0 -5,2.43 -5,5 0,0.552 0.447,1 1,1 z m 4,-12 c 0.553,0 1,-0.448 1,-1 0,-0.552 -0.447,-1 -1,-1 -1.458,0 -3,-1.542 -3,-3 0,-0.552 -0.447,-1 -1,-1 -0.553,0 -1,0.448 -1,1 0,2.57 2.43,5 5,5 z m 10,-4 c -0.553,0 -1,0.448 -1,1 0,1.458 -1.542,3 -3,3 -0.553,0 -1,0.448 -1,1 0,0.552 0.447,1 1,1 2.57,0 5,-2.43 5,-5 0,-0.552 -0.447,-1 -1,-1 z m -4,12 c -0.553,0 -1,0.448 -1,1 0,0.552 0.447,1 1,1 1.458,0 3,1.542 3,3 0,0.552 0.447,1 1,1 0.553,0 1,-0.448 1,-1 0,-2.57 -2.43,-5 -5,-5 z M 34,14 c 0,-2.57 2.43,-5 5,-5 0.553,0 1,0.448 1,1 0,0.552 -0.447,1 -1,1 -1.458,0 -3,1.542 -3,3 0,0.552 -0.447,1 -1,1 -0.553,0 -1,-0.448 -1,-1 z"
             id="android-brain"
             style="fill:#0000ff" />
        </g>
      </g>
      <rect
         style="fill:#0000ff;stroke-width:0.24167"
         id="rect176"
         width="57.12635"
         height="2.5485902"
         x="9.3372812"
         y="64.237892" />
      <rect
         style="fill:#0000ff;stroke-width:0.24167"
         id="rect330"
         width="57.12635"
         height="2.5485902"
         x="78.546768"
         y="64.237892" />
      <text
         xml:space="preserve"
         style="font-size:12.0272px;line-height:1.25;font-family:'Modern No. 20';-inkscape-font-specification:'Modern No. 20, ';stroke-width:0.375847"
         x="50.777954"
         y="80.280121"
         id="text3062"><tspan
           sodipodi:role="line"
           id="tspan3060"
           style="font-style:normal;font-variant:normal;font-weight:bold;font-stretch:normal;font-size:12.0272px;font-family:Calibri;-inkscape-font-specification:'Calibri Bold';fill:#0000ff;stroke-width:0.375847"
           x="50.777954"
           y="80.280121">Neura<tspan
   style="fill:#aa0000;stroke-width:0.375847"
   id="tspan43858">Sys</tspan></tspan></text>
    </g>
  </g>
</svg>
