<?xml version="1.0" encoding="UTF-8"?> <!-- Generator: Adobe Illustrator 25.0.0, SVG Export Plug-In . SVG Version: 6.00 Build 0) --> <svg xmlns="http://www.w3.org/2000/svg" xmlns:xlink="http://www.w3.org/1999/xlink" id="Слой_1" x="0px" y="0px" viewBox="0 0 895.1274414 169.5000153" style="enable-background:new 0 0 895.1274414 169.5000153;" xml:space="preserve"> <style type="text/css"> .st0{fill:#FE7B8D;} </style> <g> <g> <g> <path class="st0" d="M372.2781677,166.9800262v-64.4714279h22.5199585c7.849884,0,14.4128113,2.5737076,19.4315491,7.5924454 c5.1474304,5.0187225,7.7211304,11.4530029,7.7211304,19.4315186v10.6808929c0,7.8498383-2.5737,14.4127808-7.7211304,19.4315186 c-5.1473999,5.0187378-11.581665,7.4637756-19.4315491,7.4637756h-22.5199585V166.9800262z M385.1467285,112.4173889v44.6538696 h9.5227356c4.2466125,0,7.7211304-1.5442352,10.2948608-4.7613678c2.5737-3.2171326,3.8605652-7.2063904,3.8605652-12.2251282 v-10.8095703c0-4.8900528-1.2868652-9.0079803-3.8605652-12.0964279 c-2.5737305-3.2171402-6.0482483-4.7613602-10.2948608-4.7613602h-9.5227356V112.4173889z"></path> <path class="st0" d="M459.5270081,166.9800262c-0.5147705-1.02948-0.9008179-2.1876373-1.1582031-3.4745026 c-0.3860474-1.1581573-0.6434326-2.4450073-0.7720947-3.7318726c-1.2868347,2.3163452-3.0884705,4.2466278-5.2761536,5.7908478 c-2.1876526,1.54422-4.7613831,2.3163452-7.849762,2.3163452c-5.0187683,0-8.8793335-1.28685-11.5816956-3.8605652 c-2.7024536-2.5737152-4.1179504-6.0482178-4.1179504-10.5522003c0-4.6326904,1.8015442-8.364563,5.4047852-10.9382782 c3.6031799-2.5737,8.8792725-3.8605652,15.8283081-3.8605652h7.2063599V134.80867 c0-2.3163452-0.6434326-4.1179199-1.8015442-5.4047852c-1.1582031-1.28685-2.9597473-1.9302826-5.4048157-1.9302826 c-2.059021,0-3.7319031,0.51474-4.8900452,1.54422c-1.1581726,1.0294952-1.6728821,2.4450226-1.6728821,4.2466278h-12.4825134 l-0.1287231-0.25737c-0.2573853-3.9892578,1.5442505-7.5924301,5.2761536-10.4235306 c3.7318115-2.9597702,8.6219482-4.3752975,14.670105-4.3752975c5.7908325,0,10.4235535,1.4155502,14.0267334,4.3752975 c3.6031799,2.8310776,5.2760925,7.0777054,5.2760925,12.4824905v19.8175659c0,2.1876526,0.1287231,4.3752899,0.5147705,6.3055725 s0.9008179,3.9892578,1.6728821,5.9195404h-12.7398071V166.9800262z M447.6879272,158.3581085 c2.1876526,0,4.2466125-0.51474,6.0482178-1.6729126c1.8015747-1.1581726,2.9597473-2.4450226,3.6031799-3.8605652v-6.820343 h-7.2064209c-2.7023621,0-4.7613831,0.6434326-6.1768799,2.0589752c-1.4155273,1.4155579-2.05896,3.0884552-2.05896,5.0187225 c0,1.6729279,0.5147095,2.9597778,1.5442505,3.8605652C444.4707947,157.8433685,445.8862915,158.3581085,447.6879272,158.3581085 z"></path> <path class="st0" d="M495.5589294,107.2699661v11.7103882h8.1071777v9.1366806h-8.1071777v24.4502411 c0,1.80159,0.3860474,3.2171326,1.1582031,3.9892578c0.7720947,0.7721252,1.8016357,1.1581573,3.088501,1.1581573 c0.6434326,0,1.2868347,0,1.8016357-0.1286926c0.5147705-0.1286926,1.0294495-0.2573547,1.6728821-0.3860474l1.02948,9.394043 c-1.2868652,0.3860626-2.5737305,0.77211-3.7319336,1.02948c-1.2868347,0.25737-2.5737,0.3860626-3.9891968,0.3860626 c-4.5039978,0-7.8497925-1.28685-10.2948608-3.7318726c-2.4450378-2.4450073-3.6031799-6.3055725-3.6031799-11.7103882 v-24.4502411h-6.9490356v-9.1366806h6.9490356v-11.7103806 C482.6904602,107.2699738,495.5589294,107.2699738,495.5589294,107.2699661z"></path> <path class="st0" d="M539.8267212,166.9800262c-0.5147705-1.02948-0.9008179-2.1876373-1.1582031-3.4745026 c-0.3860474-1.1581573-0.6434326-2.4450073-0.7720947-3.7318726c-1.2868652,2.3163452-3.088501,4.2466278-5.276062,5.7908478 c-2.1876831,1.54422-4.7614136,2.3163452-7.8497925,2.3163452c-5.0187378,0-8.8793335-1.28685-11.581665-3.8605652 c-2.7023926-2.5737152-4.117981-6.0482178-4.117981-10.5522003c0-4.6326904,1.8016357-8.364563,5.4047852-10.9382782 c3.6032104-2.5737,8.8793335-3.8605652,15.8283081-3.8605652h7.2063599V134.80867 c0-2.3163452-0.6434326-4.1179199-1.8016357-5.4047852c-1.1582031-1.28685-2.9597168-1.9302826-5.4047852-1.9302826 c-2.05896,0-3.7319336,0.51474-4.8900146,1.54422c-1.1582031,1.0294952-1.6729126,2.4450226-1.6729126,4.2466278h-12.4825134 l-0.1286621-0.25737c-0.2573853-3.9892578,1.54422-7.5924301,5.2760925-10.4235306 c3.7318726-2.9597702,8.6219482-4.3752975,14.670166-4.3752975c5.7908325,0,10.4235229,1.4155502,14.0267334,4.3752975 c3.6032104,2.8310776,5.276123,7.0777054,5.276123,12.4824905v19.8175659c0,2.1876526,0.1286011,4.3752899,0.5147705,6.3055725 c0.3859863,1.9302826,0.9007568,3.9892578,1.6728516,5.9195404h-12.7398682V166.9800262z M527.9877319,158.3581085 c2.1876221,0,4.246582-0.51474,6.0482178-1.6729126s2.9597168-2.4450226,3.6031494-3.8605652v-6.820343h-7.2063599 c-2.7023315,0-4.7613525,0.6434326-6.1768799,2.0589752c-1.4154663,1.4155579-2.0588989,3.0884552-2.0588989,5.0187225 c0,1.6729279,0.5147705,2.9597778,1.5441895,3.8605652C524.6418457,157.8433685,526.1860962,158.3581085,527.9877319,158.3581085 z"></path> <path class="st0" d="M617.4241333,150.1222382c0-2.4450073-0.9008179-4.5039825-2.5737305-5.9195404 c-1.6728516-1.54422-4.7613525-2.9597626-9.1365967-4.2466278c-7.4637451-2.1876373-13.1259766-4.8900452-16.9865112-7.9784851 c-3.8605957-3.0884552-5.7908325-7.2064056-5.7908325-12.4824982c0-5.2761002,2.1876221-9.651413,6.5629272-12.9972305 c4.3753052-3.3458252,9.9087524-5.0187378,16.6004028-5.0187378c7.2063599,0,12.8685913,1.8015976,17.2438965,5.4047852 c4.3753662,3.6032028,6.4343262,8.364563,6.3056641,14.1554108l-0.1286621,0.2573624H617.038147 c0-3.2171402-1.0294189-5.6621552-2.9597168-7.4637604c-1.9302979-1.6729202-4.6326294-2.5737152-8.2359009-2.5737152 c-3.2171631,0-5.6622314,0.7721176-7.335083,2.3163452c-1.8016357,1.54422-2.5737305,3.4745026-2.5737305,5.9195404 c0,2.1876526,0.9008179,3.9892578,2.8311157,5.4047928c1.9302368,1.4155426,5.1473999,2.8310699,9.7800293,4.5039902 c7.0776978,2.0589752,12.4825439,4.6326904,16.2143555,7.849823c3.7319336,3.2171326,5.5334473,7.4637604,5.5334473,12.7398529 c0,5.5334778-2.1876221,9.908783-6.4342651,13.1259155c-4.246582,3.2171478-10.0374756,4.7613678-17.1151733,4.7613678 c-6.9490356,0-12.8685303-1.6729126-17.8872681-5.1474304c-5.0187988-3.4745026-7.335083-8.6219177-7.2063599-15.4422455 l0.1286621-0.25737h12.4824829c0,3.8605652,1.1582031,6.5629578,3.3457642,8.3645477 c2.1876831,1.80159,5.276123,2.7024078,9.1366577,2.7024078c3.4745483,0,6.0482178-0.7721252,7.8497925-2.1876526 C616.5233154,154.4975433,617.4241333,152.5672607,617.4241333,150.1222382z"></path> <path class="st0" d="M658.989563,157.9720459c2.1876221,0,3.9891968-0.6434326,5.4047852-2.0589752 c1.2868652-1.28685,1.9302979-3.0884399,1.9302979-5.4047852h11.8390503l0.1286621,0.25737 c0.1286621,4.8900452-1.6729126,8.8792877-5.4047852,12.0964203c-3.7319336,3.2171478-8.364563,4.8900604-13.7694092,4.8900604 c-7.0776978,0-12.611145-2.3163452-16.4716797-6.820343c-3.8605957-4.5039825-5.7908936-10.2948303-5.7908936-17.3725433 v-1.28685c0-7.0776978,1.9302979-12.8685455,5.7908936-17.3725433c3.8605347-4.5039902,9.2653198-6.8203354,16.3430786-6.8203354 c5.7908325,0,10.5521851,1.6729126,14.1553955,5.0187225c3.6031494,3.3458328,5.276062,7.8498306,5.1473999,13.2546158 l-0.1286621,0.25737H666.324646c0-2.4450226-0.6434326-4.5039978-1.9302979-6.1769104s-3.088501-2.445015-5.4047852-2.445015 c-3.3458252,0-5.6622314,1.2868576-7.0777588,3.9892502c-1.4154663,2.7024078-2.0588989,6.0482178-2.0588989,10.2948456v1.28685 c0,4.2466278,0.6434326,7.7211304,2.0588989,10.2948456C653.1986694,156.6851959,655.5150146,157.9720459,658.989563,157.9720459 z"></path> <path class="st0" d="M699.2680664,107.5273361h-12.8685303v-9.651413h12.8685303V107.5273361z M699.2680664,166.9800262 h-12.8685303v-47.8709946h12.8685303V166.9800262z"></path> <path class="st0" d="M730.6673584,167.8808289c-7.2063599,0-12.7398682-2.1876526-16.729126-6.562973 c-3.9891968-4.3753052-6.0482178-10.0374756-6.0482178-16.9864807v-1.80159 c0-7.2063904,1.9302979-12.9972382,5.7908325-17.6299057c3.8605957-4.6326904,9.2653809-6.820343,16.0856934-6.820343 c6.4342651,0,11.3243408,1.9302826,14.7988281,5.919548c3.4745483,3.9892578,5.1474609,9.2653503,5.1474609,15.9569855v6.6916504 h-28.5682373l-0.1286011,0.25737c0.2573853,3.2171326,1.1581421,5.9195404,2.9597168,7.9784851 c1.8016357,2.0589752,4.3753662,3.0884552,7.9785156,3.0884552c2.8311157,0,5.4047852-0.25737,7.335083-0.9008026 c2.05896-0.6434174,4.117981-1.54422,6.305603-2.7023926l3.4745483,7.9784851 c-1.9302979,1.54422-4.5039673,2.8310852-7.8497925,3.9892578 C738.1311035,167.3660889,734.5279541,167.8808289,730.6673584,167.8808289z M729.8952026,128.1170197 c-2.5736694,0-4.6326294,0.9007874-6.0482178,2.7023926c-1.4155273,1.80159-2.1876831,4.1179352-2.5737305,7.077713 l0.1286621,0.2573547h15.8283691V137.125c0-2.8310852-0.5147705-5.0187225-1.6728516-6.562973 C734.2705688,128.8891296,732.4689331,128.1170197,729.8952026,128.1170197z"></path> <path class="st0" d="M769.1442871,118.9803314l0.5147705,6.8203354c1.5442505-2.445015,3.6032104-4.3752975,5.9194946-5.6621475 c2.3163452-1.4155502,4.8900757-2.0589828,7.8497925-2.0589828c4.8900146,0,8.6219482,1.5442276,11.3243408,4.6326904 c2.7023315,3.0884399,4.1179199,7.9784927,4.1179199,14.7988358v29.3403015h-12.9971924v-29.3403015 c0-3.4745026-0.6434326-5.7908478-1.8016357-7.3350677c-1.1582031-1.4155579-2.9597778-2.1876526-5.4047852-2.1876526 c-1.9302979,0-3.6032104,0.3860626-5.0187988,1.02948c-1.4154663,0.7721252-2.7023315,1.6729279-3.6031494,2.9597778v34.616394 h-12.8685913v-47.8710098h11.9678345V118.9803314z"></path> <path class="st0" d="M828.5969849,157.9720459c2.1876831,0,3.9892578-0.6434326,5.4048462-2.0589752 c1.2868652-1.28685,1.9302979-3.0884399,1.9302979-5.4047852h11.8390503l0.1286621,0.25737 c0.1286621,4.8900452-1.6729126,8.8792877-5.4047852,12.0964203c-3.7319336,3.2171478-8.364563,4.8900604-13.7694092,4.8900604 c-7.0776978,0-12.611145-2.3163452-16.4717407-6.820343c-3.8605347-4.5039825-5.7908325-10.2948303-5.7908325-17.3725433 v-1.28685c0-7.0776978,1.9302979-12.8685455,5.7908325-17.3725433c3.8605957-4.5039902,9.2653809-6.8203354,16.3430786-6.8203354 c5.7908936,0,10.5522461,1.6729126,14.1554565,5.0187225c3.6031494,3.3458328,5.276062,7.8498306,5.1473999,13.2546158 l-0.1286621,0.25737h-11.8390503c0-2.4450226-0.6434326-4.5039978-1.9302979-6.1769104s-3.088501-2.445015-5.4048462-2.445015 c-3.3457642,0-5.6621704,1.2868576-7.0776978,3.9892502c-1.4154663,2.7024078-2.0588989,6.0482178-2.0588989,10.2948456v1.28685 c0,4.2466278,0.6434326,7.7211304,2.0588989,10.2948456 C822.8061523,156.6851959,825.2512207,157.9720459,828.5969849,157.9720459z"></path> <path class="st0" d="M876.0819702,167.8808289c-7.2063599,0-12.7398682-2.1876526-16.7290649-6.562973 c-3.9892578-4.3753052-6.0482788-10.0374756-6.0482788-16.9864807v-1.80159 c0-7.2063904,1.9302979-12.9972382,5.7908936-17.6299057c3.8605347-4.6326904,9.2653198-6.820343,16.0856323-6.820343 c6.4343262,0,11.3243408,1.9302826,14.7988281,5.919548c3.4745483,3.9892578,5.1474609,9.2653503,5.1474609,15.9569855v6.6916504 h-28.5682373l-0.1286011,0.25737c0.2573853,3.2171326,1.1582031,5.9195404,2.9597168,7.9784851 c1.8016357,2.0589752,4.3753662,3.0884552,7.9785156,3.0884552c2.8311157,0,5.4048462-0.25737,7.335083-0.9008026 c2.05896-0.6434174,4.117981-1.54422,6.3056641-2.7023926l3.4744873,7.9784851 c-1.9302979,1.54422-4.5039673,2.8310852-7.8497925,3.9892578 C883.5457153,167.3660889,879.9425659,167.8808289,876.0819702,167.8808289z M875.3098145,128.1170197 c-2.5736694,0-4.6326294,0.9007874-6.0482178,2.7023926c-1.4155273,1.80159-2.1876831,4.1179352-2.5737305,7.077713 l0.1286621,0.2573547h15.8283081V137.125c0-2.8310852-0.5147705-5.0187225-1.6729126-6.562973 C879.6851807,128.8891296,877.8835449,128.1170197,875.3098145,128.1170197z"></path> </g> <g> <path class="st0" d="M409.9830933,45.6296082h-23.9355469l-9.6514282,26.5092087h-4.1179504l25.7370911-70.6483383 l25.7371216,70.6483383h-4.1179504L409.9830933,45.6296082z M408.5675049,41.769043l-10.5522461-28.9542389 L387.4630432,41.769043H408.5675049z"></path> <path class="st0" d="M472.5242004,29.8012867L462.100647,42.7985191l16.7290955,29.4689827h-4.8900146l-14.4128113-26.3805275 l-3.8605652,4.7613602v21.4904823h-3.8605652V11.6566334h3.8605652v32.5574341l11.8390808-14.54146h5.0187683V29.8012867z"></path> <path class="st0" d="M551.0223389,72.1388168h-3.8605347v-8.6219215 c-0.7720947,1.0294838-1.5442505,1.9302788-2.4450684,2.8310738c-4.6326294,4.6326752-10.2948608,6.9490204-16.8577881,6.9490204 s-12.0964355-2.3163452-16.7290955-6.9490204c-4.6326294-4.6326752-6.9490356-10.166153-6.9490356-16.7291107 s2.3163147-12.2251244,6.9490356-16.8577995c4.6326599-4.6326771,10.1661682-6.9490204,16.7290955-6.9490204 s12.2251587,2.3163376,16.8577881,6.9490204c0.9008179,0.900795,1.6729126,1.9302826,2.4450684,2.8310776v-6.0482216h3.8605347 V72.1388168z M547.1618042,53.4794197v-7.7211266c-0.7720947-3.8605652-2.5737305-7.0777054-5.4047852-10.0374756 c-3.8605957-3.8605652-8.4932251-5.7908478-13.8980713-5.7908478c-5.4047852,0-10.0374146,1.9302826-13.8980103,5.7908478 c-3.8605347,3.8605652-5.7908325,8.4932404-5.7908325,13.8980408c0,5.4047852,1.9302979,10.0374718,5.7908325,13.898037 c3.8605957,3.8605614,8.4932251,5.6621666,13.8980103,5.6621666c5.4048462,0,10.0374756-1.9302826,13.8980713-5.7908516 C544.5880737,60.5571251,546.3897095,57.3399849,547.1618042,53.4794197z"></path> <path class="st0" d="M629.2631226,72.1388168h-3.8605347v-8.6219215 c-0.7720947,1.0294838-1.5442505,1.9302788-2.4450684,2.8310738c-4.6326294,4.6326752-10.2948608,6.9490204-16.8577881,6.9490204 s-12.0964355-2.3163452-16.729126-6.9490204c-4.6326294-4.6326752-6.9490356-10.166153-6.9490356-16.7291107 s2.3163452-12.2251244,6.9490356-16.8577995s10.1661987-6.9490204,16.729126-6.9490204 s12.2251587,2.3163376,16.8577881,6.9490204c0.9008179,0.900795,1.6729126,1.9302826,2.4450684,2.8310776V3.0347033h3.8605347 V72.1388168z M625.4025879,53.4794197v-7.7211266c-0.7720947-3.8605652-2.5737305-7.0777054-5.4048462-10.0374756 c-3.8605347-3.8605652-8.4931641-5.7908478-13.8980103-5.7908478c-5.4047852,0-10.0374146,1.9302826-13.8980103,5.7908478 c-3.8605347,3.8605652-5.7908325,8.4932404-5.7908325,13.8980408c0,5.4047852,1.9302979,10.0374718,5.7908325,13.898037 c3.8605957,3.8605614,8.4932251,5.6621666,13.8980103,5.6621666c5.4048462,0,10.0374756-1.9302826,13.8980103-5.7908516 C622.8288574,60.5571251,624.6304932,57.3399849,625.4025879,53.4794197z"></path> <path class="st0" d="M669.6704102,64.1603241c3.6032104,3.3458176,7.9785156,5.0187378,12.9971924,5.0187378 c5.4048462,0,10.0374756-1.9302826,13.8980103-5.7908516c0.5147705-0.5147438,0.9008179-1.0294876,1.4155273-1.54422 l4.117981,1.4155388c-0.7720947,1.0294876-1.5442505,2.0589676-2.5737305,2.9597702 c-4.6326294,4.6326752-10.2948608,6.9490204-16.8577881,6.9490204s-12.0964355-2.3163452-16.729126-6.9490204 c-4.6326294-4.632679-6.9490356-10.2948418-6.9490356-16.8577995s2.3163452-12.0964394,6.9490356-16.7291145 s10.1661987-6.9490204,16.729126-6.9490204c5.6622314,0,10.5522461,1.6729107,14.670166,5.0187359 c0.6434326,0.5147438,1.4155273,1.1581726,2.05896,1.9302845c0.2573853,0.2573662,0.5147705,0.5147438,0.7720947,0.77211 l-2.9597778,2.9597702L669.6704102,64.1603241z M694.5067139,33.9192276 c-3.3458252-2.5737095-7.335083-3.8605633-11.7103882-3.8605633c-5.4047852,0-10.0374146,1.9302826-13.7693481,5.6621647 c-3.8605347,3.8605652-5.7908325,8.4932404-5.7908325,13.898037c0,4.503994,1.2868652,8.3645592,3.8605347,11.7103806 L694.5067139,33.9192276z"></path> <path class="st0" d="M731.9542236,29.8012867h3.8605957v1.0294838c2.4450073-2.3163376,5.276062-3.4745102,8.6219482-3.4745102 c3.4744873,0,6.4342651,1.2868557,8.8792725,3.7318821c0.6434326,0.6434269,1.2868652,1.4155388,1.6729126,2.1876488 c0.5147705-0.77211,1.02948-1.4155388,1.8016357-2.1876545c2.4450684-2.4450264,5.4047852-3.7318802,8.8793335-3.7318802 s6.4342651,1.2868538,8.8793335,3.7318802c2.3163452,2.3163395,3.6031494,5.1474171,3.7319336,8.4932461v32.5574341h-3.8605957 V39.4527016l0,0c-0.1286621-2.1876526-1.02948-4.1179352-2.5737305-5.7908478 c-1.6728516-1.6729126-3.7318726-2.5737114-6.1768799-2.5737114s-4.5039673,0.9007988-6.1768799,2.5737114 s-2.5736694,3.8605652-2.5736694,6.3055916v32.1713715h-3.8605957V39.4527016l0,0 c-0.1286621-2.1876526-1.02948-4.1179352-2.5737305-5.7908478c-1.6728516-1.6729126-3.7318726-2.5737114-6.1768799-2.5737114 c-2.4450684,0-4.3753052,0.9007988-6.1768799,2.5737114c-1.5442505,1.4155388-2.3163452,3.2171364-2.5737305,5.4047852 v33.0721779h-3.8605347v-42.337532H731.9542236z"></path> <path class="st0" d="M816.3718872,15.9032536c0.7720947,0.7721119,1.1582031,1.6729107,1.1582031,2.7023945 c0,1.1581707-0.3860474,2.0589657-1.1582031,2.7023926c-0.7720947,0.7721119-1.6729126,1.1581726-2.7023926,1.1581726 c-1.0294189,0-1.9302368-0.3860569-2.7023315-1.1581726c-0.7720947-0.77211-1.1582031-1.6729107-1.1582031-2.7023926 c0-1.0294838,0.3860474-1.9302826,1.1582031-2.7023945c0.7720947-0.7721109,1.6729126-1.1581717,2.7023315-1.1581717 C814.6989746,14.7450867,815.5997925,15.1311426,816.3718872,15.9032536z M815.5997925,29.8012867v42.466217h-3.8605347 v-42.466217H815.5997925z"></path> <path class="st0" d="M894.6126709,72.1388168h-3.8605957v-8.6219215 c-0.7720947,1.0294838-1.5442505,1.9302788-2.4450684,2.8310738c-4.6326294,4.6326752-10.2947998,6.9490204-16.8577271,6.9490204 s-12.0964966-2.3163452-16.729126-6.9490204s-6.9490356-10.166153-6.9490356-16.7291107 s2.3162842-12.2251244,6.9490356-16.8577995c4.6326294-4.6326771,10.1661987-6.9490204,16.729126-6.9490204 s12.2250977,2.3163376,16.8577271,6.9490204c0.9008179,0.900795,1.6729126,1.9302826,2.4450684,2.8310776v-6.0482216h3.8605957 V72.1388168z M890.7520752,53.4794197v-7.7211266c-0.7720947-3.8605652-2.5736694-7.0777054-5.4047852-10.0374756 c-3.8605957-3.8605652-8.4932251-5.7908478-13.8980103-5.7908478c-5.4048462,0-10.0374756,1.9302826-13.8980103,5.7908478 c-3.8605957,3.8605652-5.7908936,8.4932404-5.7908936,13.8980408c0,5.4047852,1.9302979,10.0374718,5.7908936,13.898037 c3.8605347,3.8605614,8.4931641,5.6621666,13.8980103,5.6621666c5.4047852,0,10.0374146-1.9302826,13.8980103-5.7908516 C888.1784058,60.5571251,889.9799805,57.3399849,890.7520752,53.4794197z"></path> </g> </g> <g> <g> <g> <path class="st0" d="M305.3427429,163.4319916c-0.9708862,0-1.7799683-0.8090668-1.7799683-1.779953v-41.505249h-95.2274323 V63.0264969c0-0.9708786,0.8090668-1.7799492,1.7799683-1.7799492c0.9708862,0,1.779953,0.8090706,1.779953,1.7799492 v53.4794769h95.227478v45.1460648C307.2036133,162.6229248,306.3945618,163.4319916,305.3427429,163.4319916z"></path> </g> <g> <path class="st0" d="M198.8692322,146.2797241c-0.8899841,0-1.6181335-0.7281494-1.6181335-1.6181335V49.0295982 c0-0.8899765,0.7281494-1.6181412,1.6181335-1.6181412s1.6181335,0.7281647,1.6181335,1.6181412v95.6319733 C200.4873657,145.5515594,199.759201,146.2797241,198.8692322,146.2797241z"></path> </g> <g> <path class="st0" d="M187.6231689,163.0274658c-0.7281647,0-1.3754272-0.6472626-1.3754272-1.3754272V36.8126526 c0-0.7281647,0.6472626-1.3754196,1.3754272-1.3754196c0.7281494,0,1.375412,0.6472549,1.375412,1.3754196v124.839386 C189.079483,162.4611206,188.4322357,163.0274658,187.6231689,163.0274658z"></path> </g> <g> <path class="st0" d="M176.3771057,129.6128998c-0.7281647,0-1.375412-0.6472626-1.375412-1.375412V20.5503597 c0-0.7281628,0.6472473-1.3754177,1.375412-1.3754177c0.7281494,0,1.375412,0.647253,1.375412,1.3754177v107.6871262 C177.8334351,128.9656372,177.1861725,129.6128998,176.3771057,129.6128998z"></path> </g> <g> <g> <path class="st0" d="M165.2119446,119.4995346c-0.6472626,0-1.2136078-0.5663528-1.2136078-1.2136078v-43.932457 c0-0.6472626,0.5663452-1.2136078,1.2136078-1.2136078s1.2136078,0.5663452,1.2136078,1.2136078v43.932457 C166.3446503,119.0140991,165.8592072,119.4995346,165.2119446,119.4995346z"></path> </g> <g> <path class="st0" d="M153.9658813,110.5188675c-0.5663452,0-0.970871-0.4045334-0.970871-0.9708786v-35.194519 c0-0.5663452,0.4045258-0.9708786,0.970871-0.9708786s0.9708862,0.4045334,0.9708862,0.9708786v35.1136093 C154.9367676,110.0334244,154.4513245,110.5188675,153.9658813,110.5188675z"></path> </g> <g> <path class="st0" d="M142.7198181,119.4995346c-0.6472626,0-1.2136078-0.5663528-1.2136078-1.2136078v-43.932457 c0-0.6472626,0.5663452-1.2136078,1.2136078-1.2136078s1.2136078,0.5663452,1.2136078,1.2136078v43.932457 C143.8525238,119.0140991,143.3670807,119.4995346,142.7198181,119.4995346z"></path> </g> </g> <g> <g> <path class="st0" d="M165.2119446,38.0262566c-0.6472626,0-1.2136078-0.566349-1.2136078-1.213604V7.7670655 c0-0.6472559,0.5663452-1.213604,1.2136078-1.213604s1.2136078,0.5663481,1.2136078,1.213604v29.0455875 C166.3446503,37.4599075,165.8592072,38.0262566,165.2119446,38.0262566z"></path> </g> <g> <path class="st0" d="M153.9658813,37.783535c-0.5663452,0-0.970871-0.4045334-0.970871-0.9708824V0.9708832 C152.9950104,0.4045347,153.3995361,0,153.9658813,0s0.9708862,0.4045346,0.9708862,0.9708832v35.8417702 C154.9367676,37.3790016,154.4513245,37.783535,153.9658813,37.783535z"></path> </g> <g> <path class="st0" d="M142.7198181,38.0262566c-0.6472626,0-1.2136078-0.566349-1.2136078-1.213604V7.7670655 c0-0.6472559,0.5663452-1.213604,1.2136078-1.213604s1.2136078,0.5663481,1.2136078,1.213604v29.0455875 C143.8525238,37.4599075,143.3670807,38.0262566,142.7198181,38.0262566z"></path> </g> </g> <g> <path class="st0" d="M131.4737549,129.6128998c-0.7281494,0-1.375412-0.6472626-1.375412-1.375412V20.5503597 c0-0.7281628,0.6472626-1.3754177,1.375412-1.3754177c0.7281647,0,1.375412,0.647253,1.375412,1.3754177v107.6871262 C132.8491669,128.9656372,132.2019196,129.6128998,131.4737549,129.6128998z"></path> </g> <g> <path class="st0" d="M120.2276993,163.0274658c-0.728157,0-1.375412-0.6472626-1.375412-1.3754272V36.8126526 c0-0.7281647,0.6472549-1.3754196,1.375412-1.3754196s1.3754196,0.6472549,1.3754196,1.3754196v124.839386 C121.6031189,162.4611206,120.9558563,163.0274658,120.2276993,163.0274658z"></path> </g> <g> <path class="st0" d="M108.9816284,146.2797241c-0.8899765,0-1.6181335-0.7281494-1.6181335-1.6181335V49.0295982 c0-0.8899765,0.728157-1.6181412,1.6181335-1.6181412c0.8899841,0,1.6181412,0.7281647,1.6181412,1.6181412v95.6319733 C110.5188675,145.5515594,109.8716125,146.2797241,108.9816284,146.2797241z"></path> </g> <g> <path class="st0" d="M7.8479719,163.4319916c-0.9708829,0-1.779952-0.8090668-1.779952-1.779953v-45.1460648h89.8875885 V63.0264969c0-0.9708786,0.8090744-1.7799492,1.779953-1.7799492s1.779953,0.8090706,1.779953,1.7799492v57.0393829H9.627924 v41.5052567C9.627924,162.6229248,8.8188553,163.4319916,7.8479719,163.4319916z"></path> </g> <g> <circle class="st0" cx="153.9658813" cy="77.0233917" r="3.2362785"></circle> <path class="st0" d="M153.9658813,81.0687408c-2.2653961,0-4.0453339-1.8608627-4.0453339-4.0453491 s1.8608551-4.0453415,4.0453339-4.0453415c2.2653961,0,4.0453491,1.8608551,4.0453491,4.0453415 S156.1503754,81.0687408,153.9658813,81.0687408z M153.9658813,74.5152817c-1.375412,0-2.5081177,1.1326981-2.5081177,2.50811 c0,1.3754196,1.1326904,2.5081177,2.5081177,2.5081177s2.5081329-1.1326981,2.5081329-2.5081177 C156.3930969,75.6479797,155.2603912,74.5152817,153.9658813,74.5152817z"></path> </g> <g> <circle class="st0" cx="7.8479719" cy="161.6520386" r="6.6343679"></circle> <path class="st0" d="M7.8479719,169.5000153C3.5599046,169.5000153,0,166.0210114,0,161.6520386 c0-4.3689575,3.4789982-7.8479614,7.8479719-7.8479614s7.8479719,3.4790039,7.8479719,7.8479614 C15.6959438,166.0210114,12.1360397,169.5000153,7.8479719,169.5000153z M7.8479719,156.2312775 c-2.993556,0-5.420764,2.4272156-5.420764,5.4207611c0,2.9935608,2.4272079,5.4207764,5.420764,5.4207764 s5.420764-2.4272156,5.420764-5.4207764C13.2687359,158.658493,10.8415279,156.2312775,7.8479719,156.2312775z"></path> </g> <g> <circle class="st0" cx="305.3427429" cy="161.6520386" r="6.6343689"></circle> <path class="st0" d="M305.3427429,169.5000153c-4.2880554,0-7.8479919-3.4790039-7.8479919-7.8479767 c0-4.3689575,3.4790039-7.8479614,7.8479919-7.8479614c4.2880554,0,7.8479919,3.4790039,7.8479919,7.8479614 C313.1907349,166.0210114,309.6308289,169.5000153,305.3427429,169.5000153z M305.3427429,156.2312775 c-2.9935608,0-5.4207764,2.4272156-5.4207764,5.4207611c0,2.9935608,2.4272156,5.4207764,5.4207764,5.4207764 s5.4207764-2.4272156,5.4207764-5.4207764C310.7635193,158.658493,308.3363037,156.2312775,305.3427429,156.2312775z"></path> </g> <g> <circle class="st0" cx="153.9658813" cy="34.3854446" r="3.2362802"></circle> <path class="st0" d="M153.9658813,38.4307899c-2.2653961,0-4.0453339-1.8608589-4.0453339-4.0453453 s1.8608551-4.0453472,4.0453339-4.0453472c2.2653961,0,4.0453491,1.8608608,4.0453491,4.0453472 S156.1503754,38.4307899,153.9658813,38.4307899z M153.9658813,31.8773308c-1.375412,0-2.5081177,1.1326981-2.5081177,2.5081139 c0,1.3754196,1.1326904,2.5081139,2.5081177,2.5081139s2.5081329-1.1326981,2.5081329-2.5081139 C156.3930969,33.010025,155.2603912,31.8773308,153.9658813,31.8773308z"></path> </g> </g> <g> <ellipse transform="matrix(0.1601823 -0.9870874 0.9870874 0.1601823 110.4923706 263.5264893)" class="st0" cx="210.1153107" cy="66.8291321" rx="5.4207611" ry="5.4207697"></ellipse> <path class="st0" d="M210.1153107,73.6253052c-3.7217255,0-6.7961884-3.0744629-6.7961884-6.7961807 c0-3.7217216,3.0744629-6.7961845,6.7961884-6.7961845c3.7217102,0,6.7961731,3.0744629,6.7961731,6.7961845 C216.9114838,70.5508423,213.9179077,73.6253052,210.1153107,73.6253052z M210.1153107,62.8646812 c-2.1845093,0-3.964447,1.7799492-3.964447,3.9644432c0,2.1844788,1.7799683,3.9644394,3.964447,3.9644394 c2.1844635,0,3.9644318-1.779953,3.9644318-3.9644394C214.1606445,64.6446381,212.3806915,62.8646812,210.1153107,62.8646812z"></path> </g> <g> <circle class="st0" cx="97.7355728" cy="66.8291245" r="5.4207611"></circle> <path class="st0" d="M97.7355728,73.6253052c-3.7217178,0-6.7961807-3.0744629-6.7961807-6.7961807 c0-3.7217216,3.0744629-6.7961845,6.7961807-6.7961845s6.7961731,3.0744629,6.7961731,6.7961845 C104.5317459,70.5508423,101.4572906,73.6253052,97.7355728,73.6253052z M97.7355728,62.8646812 c-2.1844864,0-3.9644394,1.7799492-3.9644394,3.9644432c0,2.1844788,1.7799454,3.9644394,3.9644394,3.9644394 c2.1844864,0,3.9644394-1.779953,3.9644394-3.9644394C101.7000046,64.6446381,99.9200592,62.8646812,97.7355728,62.8646812z"></path> </g> <path class="st0" d="M138.5935669,39.8871155V70.631752h30.7446442V39.8871193 C169.3382111,39.8871193,138.5935669,39.8871193,138.5935669,39.8871155z M166.5064545,67.8000107h-25.1620483V42.7188568 h25.1620483V67.8000107z"></path> </g> </g> </svg> 